<?xml version="1.0" encoding="UTF-8" standalone="no"?>
<!DOCTYPE svg PUBLIC "-//W3C//DTD SVG 1.1//EN"
 "http://www.w3.org/Graphics/SVG/1.1/DTD/svg11.dtd">
<!-- Generated by graphviz version 2.40.1 (20161225.0304)
 -->
<!-- Title: dependencies Pages: 1 -->
<svg width="673pt" height="284pt"
 viewBox="0.00 0.00 673.00 284.00" xmlns="http://www.w3.org/2000/svg" xmlns:xlink="http://www.w3.org/1999/xlink">
<g id="graph0" class="graph" transform="scale(1 1) rotate(0) translate(4 280)">
<title>dependencies</title>
<polygon fill="#ffffff" stroke="transparent" points="-4,4 -4,-280 669,-280 669,4 -4,4"/>
<text text-anchor="start" x="311.5091" y="-42.4" font-family="sans-serif" font-weight="bold" font-size="14.00" fill="#000000">Legend</text>
<polygon fill="#ffffb3" stroke="transparent" points="98.5,-10 98.5,-30 118.5,-30 118.5,-10 98.5,-10"/>
<text text-anchor="start" x="122.129" y="-15.4" font-family="sans-serif" font-size="14.00" fill="#000000"> &#160;Declarations</text>
<polygon fill="#8dd3c7" stroke="transparent" points="211.5,-10 211.5,-30 231.5,-30 231.5,-10 211.5,-10"/>
<text text-anchor="start" x="235.2251" y="-15.4" font-family="sans-serif" font-size="14.00" fill="#000000"> &#160;Module</text>
<polygon fill="#80b1d3" stroke="transparent" points="297.5,-10 297.5,-30 317.5,-30 317.5,-10 297.5,-10"/>
<text text-anchor="start" x="321.2812" y="-15.4" font-family="sans-serif" font-size="14.00" fill="#000000"> &#160;Bootstrap</text>
<polygon fill="#fdb462" stroke="transparent" points="394.5,-10 394.5,-30 414.5,-30 414.5,-10 394.5,-10"/>
<text text-anchor="start" x="418.1732" y="-15.4" font-family="sans-serif" font-size="14.00" fill="#000000"> &#160;Providers</text>
<polygon fill="#fb8072" stroke="transparent" points="490.5,-10 490.5,-30 510.5,-30 510.5,-10 490.5,-10"/>
<text text-anchor="start" x="514.2258" y="-15.4" font-family="sans-serif" font-size="14.00" fill="#000000"> &#160;Exports</text>
<g id="clust1" class="cluster">
<title>cluster_AppModule</title>
<polygon fill="none" stroke="#000000" stroke-dasharray="1,5" points="8,-70 8,-268 657,-268 657,-70 8,-70"/>
</g>
<g id="clust2" class="cluster">
<title>cluster_AppModule_declarations</title>
<polygon fill="none" stroke="#000000" points="293,-78 293,-130 649,-130 649,-78 293,-78"/>
</g>
<g id="clust6" class="cluster">
<title>cluster_AppModule_imports</title>
<polygon fill="none" stroke="#000000" points="16,-78 16,-130 285,-130 285,-78 16,-78"/>
</g>
<g id="clust8" class="cluster">
<title>cluster_AppModule_bootstrap</title>
<polygon fill="none" stroke="#000000" points="292,-208 292,-260 416,-260 416,-208 292,-208"/>
</g>
<!-- AppComponent -->
<g id="node1" class="node">
<title>AppComponent</title>
<polygon fill="#ffffb3" stroke="#000000" points="640.9399,-122 535.0601,-122 535.0601,-86 640.9399,-86 640.9399,-122"/>
<text text-anchor="middle" x="588" y="-99.8" font-family="Times,serif" font-size="14.00" fill="#000000">AppComponent</text>
</g>
<!-- AppModule -->
<g id="node4" class="node">
<title>AppModule</title>
<polygon fill="#8dd3c7" stroke="#000000" points="395.6571,-187 392.6571,-191 371.6571,-191 368.6571,-187 312.3429,-187 312.3429,-151 395.6571,-151 395.6571,-187"/>
<text text-anchor="middle" x="354" y="-164.8" font-family="Times,serif" font-size="14.00" fill="#000000">AppModule</text>
</g>
<!-- AppComponent&#45;&gt;AppModule -->
<g id="edge1" class="edge">
<title>AppComponent&#45;&gt;AppModule</title>
<path fill="none" stroke="#000000" d="M588,-122.2843C588,-143.3211 588,-175 588,-175 588,-175 405.8345,-175 405.8345,-175"/>
<polygon fill="#000000" stroke="#000000" points="405.8345,-171.5001 395.8345,-175 405.8345,-178.5001 405.8345,-171.5001"/>
</g>
<!-- TestDirective -->
<g id="node2" class="node">
<title>TestDirective</title>
<polygon fill="#ffffb3" stroke="#000000" points="517.1854,-122 424.8146,-122 424.8146,-86 517.1854,-86 517.1854,-122"/>
<text text-anchor="middle" x="471" y="-99.8" font-family="Times,serif" font-size="14.00" fill="#000000">TestDirective</text>
</g>
<!-- TestDirective&#45;&gt;AppModule -->
<g id="edge2" class="edge">
<title>TestDirective&#45;&gt;AppModule</title>
<path fill="none" stroke="#000000" d="M471,-122.0225C471,-139.3734 471,-163 471,-163 471,-163 405.9092,-163 405.9092,-163"/>
<polygon fill="#000000" stroke="#000000" points="405.9093,-159.5001 395.9092,-163 405.9092,-166.5001 405.9093,-159.5001"/>
</g>
<!-- TestComponent -->
<g id="node3" class="node">
<title>TestComponent</title>
<polygon fill="#ffffb3" stroke="#000000" points="406.9357,-122 301.0643,-122 301.0643,-86 406.9357,-86 406.9357,-122"/>
<text text-anchor="middle" x="354" y="-99.8" font-family="Times,serif" font-size="14.00" fill="#000000">TestComponent</text>
</g>
<!-- TestComponent&#45;&gt;AppModule -->
<g id="edge3" class="edge">
<title>TestComponent&#45;&gt;AppModule</title>
<path fill="none" stroke="#000000" d="M354,-122.1061C354,-122.1061 354,-140.991 354,-140.991"/>
<polygon fill="#000000" stroke="#000000" points="350.5001,-140.9909 354,-150.991 357.5001,-140.991 350.5001,-140.9909"/>
</g>
<!-- AppComponent  -->
<g id="node7" class="node">
<title>AppComponent </title>
<polygon fill="#80b1d3" stroke="#000000" points="408.439,-252 299.561,-252 299.561,-216 408.439,-216 408.439,-252"/>
<text text-anchor="middle" x="354" y="-229.8" font-family="Times,serif" font-size="14.00" fill="#000000">AppComponent </text>
</g>
<!-- AppModule&#45;&gt;AppComponent  -->
<g id="edge6" class="edge">
<title>AppModule&#45;&gt;AppComponent </title>
<path fill="none" stroke="#000000" stroke-dasharray="1,5" d="M354,-187.1061C354,-187.1061 354,-205.991 354,-205.991"/>
<polygon fill="#000000" stroke="#000000" points="350.5001,-205.9909 354,-215.991 357.5001,-205.991 350.5001,-205.9909"/>
</g>
<!-- BrowserModule -->
<g id="node5" class="node">
<title>BrowserModule</title>
<polygon fill="#8dd3c7" stroke="#000000" points="277.4734,-122 274.4734,-126 253.4734,-126 250.4734,-122 170.5266,-122 170.5266,-86 277.4734,-86 277.4734,-122"/>
<text text-anchor="middle" x="224" y="-99.8" font-family="Times,serif" font-size="14.00" fill="#000000">BrowserModule</text>
</g>
<!-- BrowserModule&#45;&gt;AppModule -->
<g id="edge4" class="edge">
<title>BrowserModule&#45;&gt;AppModule</title>
<path fill="none" stroke="#000000" d="M224,-122.0225C224,-139.3734 224,-163 224,-163 224,-163 302.1516,-163 302.1516,-163"/>
<polygon fill="#000000" stroke="#000000" points="302.1516,-166.5001 312.1516,-163 302.1516,-159.5001 302.1516,-166.5001"/>
</g>
<!-- AppRoutingModule -->
<g id="node6" class="node">
<title>AppRoutingModule</title>
<polygon fill="#8dd3c7" stroke="#000000" points="152.2744,-122 149.2744,-126 128.2744,-126 125.2744,-122 23.7256,-122 23.7256,-86 152.2744,-86 152.2744,-122"/>
<text text-anchor="middle" x="88" y="-99.8" font-family="Times,serif" font-size="14.00" fill="#000000">AppRoutingModule</text>
</g>
<!-- AppRoutingModule&#45;&gt;AppModule -->
<g id="edge5" class="edge">
<title>AppRoutingModule&#45;&gt;AppModule</title>
<path fill="none" stroke="#000000" d="M88,-122.2843C88,-143.3211 88,-175 88,-175 88,-175 302.1449,-175 302.1449,-175"/>
<polygon fill="#000000" stroke="#000000" points="302.1449,-178.5001 312.1449,-175 302.1448,-171.5001 302.1449,-178.5001"/>
</g>
</g>
</svg>
