<?xml version="1.0" encoding="UTF-8" standalone="no"?>
<!DOCTYPE svg PUBLIC "-//W3C//DTD SVG 1.1//EN"
 "http://www.w3.org/Graphics/SVG/1.1/DTD/svg11.dtd">
<!-- Generated by graphviz version 2.40.1 (20161225.0304)
 -->
<!-- Title: dependencies Pages: 1 -->
<svg width="1017pt" height="290pt"
 viewBox="0.00 0.00 1017.00 290.00" xmlns="http://www.w3.org/2000/svg" xmlns:xlink="http://www.w3.org/1999/xlink">
<g id="graph0" class="graph" transform="scale(1 1) rotate(0) translate(4 286)">
<title>dependencies</title>
<polygon fill="#ffffff" stroke="transparent" points="-4,4 -4,-286 1013,-286 1013,4 -4,4"/>
<text text-anchor="start" x="483.5091" y="-42.4" font-family="sans-serif" font-weight="bold" font-size="14.00" fill="#000000">Legend</text>
<polygon fill="#ffffb3" stroke="transparent" points="270.5,-10 270.5,-30 290.5,-30 290.5,-10 270.5,-10"/>
<text text-anchor="start" x="294.129" y="-15.4" font-family="sans-serif" font-size="14.00" fill="#000000"> &#160;Declarations</text>
<polygon fill="#8dd3c7" stroke="transparent" points="383.5,-10 383.5,-30 403.5,-30 403.5,-10 383.5,-10"/>
<text text-anchor="start" x="407.2251" y="-15.4" font-family="sans-serif" font-size="14.00" fill="#000000"> &#160;Module</text>
<polygon fill="#80b1d3" stroke="transparent" points="469.5,-10 469.5,-30 489.5,-30 489.5,-10 469.5,-10"/>
<text text-anchor="start" x="493.2812" y="-15.4" font-family="sans-serif" font-size="14.00" fill="#000000"> &#160;Bootstrap</text>
<polygon fill="#fdb462" stroke="transparent" points="566.5,-10 566.5,-30 586.5,-30 586.5,-10 566.5,-10"/>
<text text-anchor="start" x="590.1732" y="-15.4" font-family="sans-serif" font-size="14.00" fill="#000000"> &#160;Providers</text>
<polygon fill="#fb8072" stroke="transparent" points="662.5,-10 662.5,-30 682.5,-30 682.5,-10 662.5,-10"/>
<text text-anchor="start" x="686.2258" y="-15.4" font-family="sans-serif" font-size="14.00" fill="#000000"> &#160;Exports</text>
<g id="clust1" class="cluster">
<title>cluster_AppModule</title>
<polygon fill="none" stroke="#000000" stroke-dasharray="1,5" points="8,-70 8,-274 657,-274 657,-70 8,-70"/>
</g>
<g id="clust2" class="cluster">
<title>cluster_AppModule_declarations</title>
<polygon fill="none" stroke="#000000" points="16,-78 16,-130 372,-130 372,-78 16,-78"/>
</g>
<g id="clust6" class="cluster">
<title>cluster_AppModule_imports</title>
<polygon fill="none" stroke="#000000" points="380,-78 380,-130 649,-130 649,-78 380,-78"/>
</g>
<g id="clust8" class="cluster">
<title>cluster_AppModule_bootstrap</title>
<polygon fill="none" stroke="#000000" points="249,-214 249,-266 373,-266 373,-214 249,-214"/>
</g>
<g id="clust10" class="cluster">
<title>cluster_AppRoutingModule</title>
<polygon fill="none" stroke="#000000" stroke-dasharray="1,5" points="665,-138 665,-206 1001,-206 1001,-138 665,-138"/>
</g>
<g id="clust12" class="cluster">
<title>cluster_AppRoutingModule_imports</title>
<polygon fill="none" stroke="#000000" points="799,-146 799,-198 993,-198 993,-146 799,-146"/>
</g>
<g id="clust13" class="cluster">
<title>cluster_AppRoutingModule_exports</title>
<polygon fill="none" stroke="#000000" points="673,-146 673,-198 791,-198 791,-146 673,-146"/>
</g>
<!-- AppComponent -->
<g id="node1" class="node">
<title>AppComponent</title>
<polygon fill="#ffffb3" stroke="#000000" points="363.9399,-122 258.0601,-122 258.0601,-86 363.9399,-86 363.9399,-122"/>
<text text-anchor="middle" x="311" y="-99.8" font-family="Times,serif" font-size="14.00" fill="#000000">AppComponent</text>
</g>
<!-- AppModule -->
<g id="node4" class="node">
<title>AppModule</title>
<polygon fill="#8dd3c7" stroke="#000000" points="352.6571,-190 349.6571,-194 328.6571,-194 325.6571,-190 269.3429,-190 269.3429,-154 352.6571,-154 352.6571,-190"/>
<text text-anchor="middle" x="311" y="-167.8" font-family="Times,serif" font-size="14.00" fill="#000000">AppModule</text>
</g>
<!-- AppComponent&#45;&gt;AppModule -->
<g id="edge1" class="edge">
<title>AppComponent&#45;&gt;AppModule</title>
<path fill="none" stroke="#000000" d="M311,-122.2228C311,-122.2228 311,-143.7269 311,-143.7269"/>
<polygon fill="#000000" stroke="#000000" points="307.5001,-143.7269 311,-153.7269 314.5001,-143.727 307.5001,-143.7269"/>
</g>
<!-- TestDirective -->
<g id="node2" class="node">
<title>TestDirective</title>
<polygon fill="#ffffb3" stroke="#000000" points="240.1854,-122 147.8146,-122 147.8146,-86 240.1854,-86 240.1854,-122"/>
<text text-anchor="middle" x="194" y="-99.8" font-family="Times,serif" font-size="14.00" fill="#000000">TestDirective</text>
</g>
<!-- TestDirective&#45;&gt;AppModule -->
<g id="edge2" class="edge">
<title>TestDirective&#45;&gt;AppModule</title>
<path fill="none" stroke="#000000" d="M194,-122.2667C194,-140.5552 194,-166 194,-166 194,-166 259.0908,-166 259.0908,-166"/>
<polygon fill="#000000" stroke="#000000" points="259.0908,-169.5001 269.0908,-166 259.0907,-162.5001 259.0908,-169.5001"/>
</g>
<!-- TestComponent -->
<g id="node3" class="node">
<title>TestComponent</title>
<polygon fill="#ffffb3" stroke="#000000" points="129.9357,-122 24.0643,-122 24.0643,-86 129.9357,-86 129.9357,-122"/>
<text text-anchor="middle" x="77" y="-99.8" font-family="Times,serif" font-size="14.00" fill="#000000">TestComponent</text>
</g>
<!-- TestComponent&#45;&gt;AppModule -->
<g id="edge3" class="edge">
<title>TestComponent&#45;&gt;AppModule</title>
<path fill="none" stroke="#000000" d="M77,-122.2921C77,-144.2057 77,-178 77,-178 77,-178 259.1655,-178 259.1655,-178"/>
<polygon fill="#000000" stroke="#000000" points="259.1655,-181.5001 269.1655,-178 259.1655,-174.5001 259.1655,-181.5001"/>
</g>
<!-- AppComponent  -->
<g id="node7" class="node">
<title>AppComponent </title>
<polygon fill="#80b1d3" stroke="#000000" points="365.439,-258 256.561,-258 256.561,-222 365.439,-222 365.439,-258"/>
<text text-anchor="middle" x="311" y="-235.8" font-family="Times,serif" font-size="14.00" fill="#000000">AppComponent </text>
</g>
<!-- AppModule&#45;&gt;AppComponent  -->
<g id="edge6" class="edge">
<title>AppModule&#45;&gt;AppComponent </title>
<path fill="none" stroke="#000000" stroke-dasharray="1,5" d="M311,-190.2228C311,-190.2228 311,-211.7269 311,-211.7269"/>
<polygon fill="#000000" stroke="#000000" points="307.5001,-211.7269 311,-221.7269 314.5001,-211.727 307.5001,-211.7269"/>
</g>
<!-- BrowserModule -->
<g id="node5" class="node">
<title>BrowserModule</title>
<polygon fill="#8dd3c7" stroke="#000000" points="494.4734,-122 491.4734,-126 470.4734,-126 467.4734,-122 387.5266,-122 387.5266,-86 494.4734,-86 494.4734,-122"/>
<text text-anchor="middle" x="441" y="-99.8" font-family="Times,serif" font-size="14.00" fill="#000000">BrowserModule</text>
</g>
<!-- BrowserModule&#45;&gt;AppModule -->
<g id="edge4" class="edge">
<title>BrowserModule&#45;&gt;AppModule</title>
<path fill="none" stroke="#000000" d="M441,-122.2667C441,-140.5552 441,-166 441,-166 441,-166 362.8484,-166 362.8484,-166"/>
<polygon fill="#000000" stroke="#000000" points="362.8484,-162.5001 352.8484,-166 362.8484,-169.5001 362.8484,-162.5001"/>
</g>
<!-- AppRoutingModule -->
<g id="node6" class="node">
<title>AppRoutingModule</title>
<polygon fill="#8dd3c7" stroke="#000000" points="641.2744,-122 638.2744,-126 617.2744,-126 614.2744,-122 512.7256,-122 512.7256,-86 641.2744,-86 641.2744,-122"/>
<text text-anchor="middle" x="577" y="-99.8" font-family="Times,serif" font-size="14.00" fill="#000000">AppRoutingModule</text>
</g>
<!-- AppRoutingModule&#45;&gt;AppModule -->
<g id="edge5" class="edge">
<title>AppRoutingModule&#45;&gt;AppModule</title>
<path fill="none" stroke="#000000" d="M577,-122.2921C577,-144.2057 577,-178 577,-178 577,-178 362.8551,-178 362.8551,-178"/>
<polygon fill="#000000" stroke="#000000" points="362.8552,-174.5001 352.8551,-178 362.8551,-181.5001 362.8552,-174.5001"/>
</g>
<!-- RouterModule  -->
<g id="node9" class="node">
<title>RouterModule </title>
<polygon fill="#fb8072" stroke="#000000" points="782.6523,-190 681.3477,-190 681.3477,-154 782.6523,-154 782.6523,-190"/>
<text text-anchor="middle" x="732" y="-167.8" font-family="Times,serif" font-size="14.00" fill="#000000">RouterModule </text>
</g>
<!-- AppRoutingModule&#45;&gt;RouterModule  -->
<g id="edge8" class="edge">
<title>AppRoutingModule&#45;&gt;RouterModule </title>
<path fill="none" stroke="#000000" stroke-dasharray="5,2" d="M641.3874,-110C683.9734,-110 732,-110 732,-110 732,-110 732,-143.7333 732,-143.7333"/>
<polygon fill="#000000" stroke="#000000" points="728.5001,-143.7333 732,-153.7333 735.5001,-143.7333 728.5001,-143.7333"/>
</g>
<!-- RouterModule.forRoot(args) -->
<g id="node8" class="node">
<title>RouterModule.forRoot(args)</title>
<polygon fill="#8dd3c7" stroke="#000000" points="984.8419,-190 981.8419,-194 960.8419,-194 957.8419,-190 807.1581,-190 807.1581,-154 984.8419,-154 984.8419,-190"/>
<text text-anchor="middle" x="896" y="-167.8" font-family="Times,serif" font-size="14.00" fill="#000000">RouterModule.forRoot(args)</text>
</g>
<!-- RouterModule.forRoot(args)&#45;&gt;AppRoutingModule -->
<g id="edge7" class="edge">
<title>RouterModule.forRoot(args)&#45;&gt;AppRoutingModule</title>
<path fill="none" stroke="#000000" d="M896,-153.7079C896,-131.7943 896,-98 896,-98 896,-98 651.5544,-98 651.5544,-98"/>
<polygon fill="#000000" stroke="#000000" points="651.5544,-94.5001 641.5544,-98 651.5544,-101.5001 651.5544,-94.5001"/>
</g>
</g>
</svg>
